<svg width="430" height="933" viewBox="0 0 430 933" fill="none" xmlns="http://www.w3.org/2000/svg">
<g clip-path="url(#clip0_51_2533)">
<rect width="430" height="933" fill="white"/>
<rect x="212.051" y="61" width="271.207" height="230.723" rx="40" transform="rotate(30.7741 212.051 61)" fill="#65D5FF"/>
<rect x="212.051" y="61" width="271.207" height="230.723" rx="40" transform="rotate(30.7741 212.051 61)" fill="#65D5FF"/>
<rect x="212.051" y="61" width="271.207" height="230.723" rx="40" transform="rotate(30.7741 212.051 61)" fill="#65D5FF"/>
<rect x="-36.9493" y="202" width="271.207" height="230.723" rx="40" transform="rotate(30.7741 -36.9493 202)" fill="#65D5FF"/>
<rect x="-36.9493" y="202" width="271.207" height="230.723" rx="40" transform="rotate(30.7741 -36.9493 202)" fill="#65D5FF"/>
<rect x="-36.9493" y="202" width="271.207" height="230.723" rx="40" transform="rotate(30.7741 -36.9493 202)" fill="#65D5FF"/>
<rect x="475.55" y="17" width="205.469" height="284.394" rx="40" transform="rotate(54.8556 475.55 17)" fill="#65D5FF"/>
<rect x="475.55" y="17" width="205.469" height="284.394" rx="40" transform="rotate(54.8556 475.55 17)" fill="#65D5FF"/>
<rect x="475.55" y="17" width="205.469" height="284.394" rx="40" transform="rotate(54.8556 475.55 17)" fill="#2696E6"/>
</g>
<defs>
<clipPath id="clip0_51_2533">
<rect width="430" height="933" fill="white"/>
</clipPath>
</defs>
</svg>
