<svg width="24" height="25" viewBox="0 0 24 25" fill="none" xmlns="http://www.w3.org/2000/svg">
<g id="vuesax/bold/menu">
<g id="menu">
<g id="Group 5953">
<path id="Vector" d="M15.5801 6.5C16.6846 6.5 17.5801 5.60457 17.5801 4.5C17.5801 3.39543 16.6846 2.5 15.5801 2.5C14.4755 2.5 13.5801 3.39543 13.5801 4.5C13.5801 5.60457 14.4755 6.5 15.5801 6.5Z" fill="currentColor"/>
<path id="Vector_2" d="M15.5801 14.4199C16.6846 14.4199 17.5801 13.5245 17.5801 12.4199C17.5801 11.3154 16.6846 10.4199 15.5801 10.4199C14.4755 10.4199 13.5801 11.3154 13.5801 12.4199C13.5801 13.5245 14.4755 14.4199 15.5801 14.4199Z" fill="currentColor"/>
<path id="Vector_3" d="M9 6.5C10.1046 6.5 11 5.60457 11 4.5C11 3.39543 10.1046 2.5 9 2.5C7.89543 2.5 7 3.39543 7 4.5C7 5.60457 7.89543 6.5 9 6.5Z" fill="currentColor"/>
<path id="Vector_4" d="M9 14.4199C10.1046 14.4199 11 13.5245 11 12.4199C11 11.3154 10.1046 10.4199 9 10.4199C7.89543 10.4199 7 11.3154 7 12.4199C7 13.5245 7.89543 14.4199 9 14.4199Z" fill="currentColor"/>
<path id="Vector_5" d="M15.5801 22.3398C16.6846 22.3398 17.5801 21.4444 17.5801 20.3398C17.5801 19.2353 16.6846 18.3398 15.5801 18.3398C14.4755 18.3398 13.5801 19.2353 13.5801 20.3398C13.5801 21.4444 14.4755 22.3398 15.5801 22.3398Z" fill="currentColor"/>
<path id="Vector_6" d="M9 22.3398C10.1046 22.3398 11 21.4444 11 20.3398C11 19.2353 10.1046 18.3398 9 18.3398C7.89543 18.3398 7 19.2353 7 20.3398C7 21.4444 7.89543 22.3398 9 22.3398Z" fill="currentColor"/>
</g>
</g>
</g>
</svg>
