<svg width="668" height="668" viewBox="0 0 668 668" fill="none" xmlns="http://www.w3.org/2000/svg">
<path d="M333.999 0.666016C150.199 0.666016 0.666016 150.199 0.666016 333.999C0.666016 517.799 150.199 667.333 333.999 667.333C517.799 667.333 667.333 517.799 667.333 333.999C667.333 150.199 517.799 0.666016 333.999 0.666016ZM367.333 533.999H300.666V467.333H367.333V533.999ZM399.866 371.166C393.333 376.433 387.033 381.466 382.033 386.466C368.433 400.033 367.366 412.366 367.333 412.899V417.333H300.666V411.766C300.666 407.833 301.633 372.533 334.866 339.299C341.366 332.799 349.433 326.199 357.899 319.333C382.366 299.499 398.433 285.033 398.433 265.099C398.045 248.26 391.083 232.241 379.035 220.47C366.987 208.699 350.81 202.111 333.966 202.115C317.123 202.119 300.949 208.716 288.908 220.493C276.866 232.271 269.911 248.293 269.533 265.133H202.866C202.866 192.833 261.699 133.999 333.999 133.999C406.299 133.999 465.133 192.833 465.133 265.133C465.133 318.366 425.833 350.133 399.866 371.166Z" fill="#EBA906"/>
</svg>
