<svg width="24" height="24" viewBox="0 0 18 17" fill="none" xmlns="http://www.w3.org/2000/svg">
<path d="M8.47925 0.5H9.85425V8.75H8.47925V0.5ZM6.41675 0.972656V2.47656C5.18498 2.99219 4.18237 3.82292 3.40894 4.96875C2.66414 6.11458 2.29175 7.375 2.29175 8.75C2.29175 10.6406 2.96493 12.2591 4.31128 13.6055C5.65763 14.9518 7.27612 15.625 9.16675 15.625C11.0574 15.625 12.6759 14.9518 14.0222 13.6055C15.3686 12.2591 16.0417 10.6406 16.0417 8.75C16.0417 7.375 15.655 6.11458 14.8816 4.96875C14.1368 3.82292 13.1485 2.99219 11.9167 2.47656V0.972656C13.5496 1.54557 14.8673 2.54818 15.8699 3.98047C16.9011 5.38411 17.4167 6.97396 17.4167 8.75C17.4167 11.013 16.6003 12.9609 14.9675 14.5938C13.3634 16.1979 11.4298 17 9.16675 17C6.90373 17 4.95581 16.1979 3.323 14.5938C1.71883 12.9609 0.916748 11.013 0.916748 8.75C0.916748 6.97396 1.41805 5.38411 2.42065 3.98047C3.4519 2.54818 4.78394 1.54557 6.41675 0.972656Z" fill="white"/>
</svg>
